<?xml version="1.0" encoding="utf-8"?>
<!-- Generator: Adobe Illustrator 19.1.0, SVG Export Plug-In . SVG Version: 6.00 Build 0)  -->
<svg version="1.1" id="katman_1" xmlns="http://www.w3.org/2000/svg" xmlns:xlink="http://www.w3.org/1999/xlink" x="0px" y="0px"
	 viewBox="0 0 206 48" width="100px" style="enable-background:new 0 0 206 48;" xml:space="preserve">
<style type="text/css">
	.st0{fill:url(#SVGID_1_);}
	.st1{fill:url(#SVGID_2_);}
	.st2{fill:url(#SVGID_3_);}
	.st3{fill:url(#SVGID_4_);}
	.st4{fill:url(#SVGID_5_);}
	.st5{fill:#FFFFFF;}
</style>
<g>
	<g>
		<linearGradient id="SVGID_1_" gradientUnits="userSpaceOnUse" x1="62.3297" y1="20.9595" x2="70.2182" y2="20.9595">
			<stop  offset="0" style="stop-color:#4D93CF"/>
			<stop  offset="1" style="stop-color:#2DBFD0"/>
		</linearGradient>
		<path class="st0" d="M64.7,33.9L64.7,33.9c1.3,0.8,3,0.3,3.5-1.1c1.2-3.2,1.9-6.7,1.9-10.3c0-4.9-1.2-9.5-3.4-13.5
			c-0.7-1.2-2.2-1.6-3.4-0.9l0,0c-1,0.7-1.4,2-0.8,3.1c1.8,3.4,2.8,7.2,2.8,11.3c0,3-0.6,5.9-1.6,8.6C63.4,32.1,63.8,33.3,64.7,33.9
			z"/>
		<linearGradient id="SVGID_2_" gradientUnits="userSpaceOnUse" x1="3.3568" y1="24" x2="79.7698" y2="24">
			<stop  offset="0" style="stop-color:#4D93CF"/>
			<stop  offset="1" style="stop-color:#2DBFD0"/>
		</linearGradient>
		<path class="st1" d="M73.5,43.5c4-6,6.3-13.3,6.3-21c0-6.9-1.8-13.3-5-18.9c-0.7-1.2-2.2-1.6-3.4-0.8l0,0c-1,0.7-1.4,2.1-0.8,3.2
			c2.8,4.9,4.4,10.5,4.4,16.5c0,5.6-1.4,10.9-3.8,15.5c-0.8,1.6-2.9,2.1-4.4,1.1L49.5,27.7c1.1-1.6,1.7-3.6,1.6-5.7
			c-0.2-4.9-4.2-8.9-9.2-9.1C36.5,12.7,32,17,32,22.4c0,1.9,0.6,3.8,1.6,5.3L16.4,39.1c-1.5,1-3.6,0.5-4.4-1.1
			C9.5,33.3,8.1,28,8.1,22.4c0-6,1.6-11.6,4.4-16.5c0.6-1.1,0.3-2.5-0.8-3.2l0,0C10.6,2,9,2.3,8.3,3.5c-3.2,5.6-5,12-5,18.8
			c0,7.8,2.3,15.2,6.3,21h0l0,0.1c1.5,2.3,4.6,2.9,6.9,1.4l0.1-0.1L37.4,31c1.2,0.6,2.6,0.9,4.1,0.9c1.5,0,2.9-0.3,4.1-0.9
			l20.8,13.7l0.1,0.1C68.8,46.3,71.8,45.8,73.5,43.5C73.4,43.5,73.5,43.5,73.5,43.5z M36.8,22.4c0-2.6,2.1-4.8,4.8-4.8
			s4.8,2.1,4.8,4.8s-2.1,4.8-4.8,4.8S36.8,25.1,36.8,22.4z"/>
		<linearGradient id="SVGID_3_" gradientUnits="userSpaceOnUse" x1="54.2972" y1="20.8786" x2="60.6666" y2="20.8786">
			<stop  offset="0" style="stop-color:#4D93CF"/>
			<stop  offset="1" style="stop-color:#2DBFD0"/>
		</linearGradient>
		<path class="st2" d="M56.5,28.4L56.5,28.4c1.4,0.9,3.2,0.2,3.6-1.4c0.4-1.5,0.6-3,0.6-4.6c0-2.9-0.7-5.7-1.8-8.2
			c-0.6-1.3-2.2-1.7-3.4-0.9l0,0c-1,0.7-1.4,1.9-0.9,3c0.9,1.9,1.4,3.9,1.4,6.1c0,1.2-0.1,2.3-0.4,3.4
			C55.2,26.8,55.6,27.9,56.5,28.4z"/>
		<linearGradient id="SVGID_4_" gradientUnits="userSpaceOnUse" x1="22.46" y1="20.8786" x2="28.8294" y2="20.8786">
			<stop  offset="0" style="stop-color:#4D93CF"/>
			<stop  offset="1" style="stop-color:#2DBFD0"/>
		</linearGradient>
		<path class="st3" d="M26.7,28.4c0.8-0.6,1.2-1.6,1-2.6c-0.3-1.1-0.4-2.2-0.4-3.4c0-2.2,0.5-4.3,1.4-6.1c0.5-1.1,0.1-2.4-0.9-3l0,0
			c-1.2-0.8-2.8-0.4-3.4,0.9c-1.2,2.5-1.8,5.3-1.8,8.2c0,1.6,0.2,3.2,0.6,4.6C23.4,28.6,25.3,29.4,26.7,28.4L26.7,28.4z"/>
		<linearGradient id="SVGID_5_" gradientUnits="userSpaceOnUse" x1="12.9084" y1="20.9595" x2="20.7968" y2="20.9595">
			<stop  offset="0" style="stop-color:#4D93CF"/>
			<stop  offset="1" style="stop-color:#2DBFD0"/>
		</linearGradient>
		<path class="st4" d="M18.4,33.9c0.9-0.6,1.3-1.8,0.9-2.9c-1-2.7-1.6-5.6-1.6-8.6c0-4.1,1-7.9,2.8-11.3c0.6-1.1,0.3-2.5-0.8-3.1
			l0,0c-1.2-0.8-2.8-0.4-3.4,0.9c-2.2,4-3.4,8.6-3.4,13.5c0,3.6,0.7,7.1,1.9,10.3C15.4,34.2,17.1,34.7,18.4,33.9L18.4,33.9z"/>
	</g>
	<g>
		<path class="st5" d="M111.5,38c0,1.3-1.1,2-2.3,2H93c0,0,0,0-0.1,0h0c-1.3,0-2.8-0.7-2.8-2V10c0-1.3,1.2-2.3,2.5-2.3
			c1.3,0,2.5,1,2.5,2.3v26h14.1C110.4,36,111.5,36.7,111.5,38z"/>
		<path class="st5" d="M115,11.5c-0.4-0.4-0.7-1-0.7-1.6s0.3-1.2,0.7-1.6c0.4-0.4,1-0.7,1.6-0.7s1.2,0.3,1.6,0.7
			c0.4,0.4,0.7,1,0.7,1.6s-0.2,1.2-0.7,1.6s-1,0.7-1.6,0.7S115.4,11.9,115,11.5z M114,38V19.1c0-1.3,1.2-2.3,2.5-2.3
			c1.3,0,2.5,1,2.5,2.3V38c0,1.3-1.2,2.3-2.5,2.3C115.2,40.3,114,39.3,114,38z"/>
		<path class="st5" d="M145,28.6V38c0,1.3-1.2,2.3-2.5,2.3c-1.3,0-2.5-1-2.5-2.3v-9.4c0-3.9-3.1-7.1-7-7.1s-7,3.2-7,7.1V38
			c0,1.3-1.2,2.3-2.5,2.3c-1.3,0-2.5-1-2.5-2.3v-9.4c0-6.5,5.5-11.8,12-11.8S145,22,145,28.6z"/>
		<path class="st5" d="M171.4,28.6c0,1.3-1,2.4-2.3,2.4h-16.2c1,3,3.6,4.7,6.7,4.7c1.1,0,3-0.1,5.2-1.6c1.1-0.7,2.5-0.1,3.1,1.1
			c0.6,1.2,0,2.4-1.1,3.1c-3.1,2.1-5.5,2-7.2,2c-6.5,0-11.8-5.3-11.8-11.8c0-6.5,5.2-11.7,11.8-11.7C165.3,16.8,171.4,21,171.4,28.6
			z M152.9,26h13.5c-1-3-4-4.8-6.8-4.8C156.5,21.2,153.9,23,152.9,26z"/>
		<path class="st5" d="M195.2,10c0,1.3-1.1,2-2.3,2H179v10h10.5c1.3,0,2.3,0.7,2.3,2c0,1.3-1.1,2-2.3,2H179v11.9
			c0,1.3-1.2,2.3-2.5,2.3c-1.3,0-2.5-1-2.5-2.3v-28c0-1.3,1.2-1.9,2.5-1.9h0c0,0,0,0,0.1,0h16.2C194.1,8,195.2,8.7,195.2,10z"/>
		<path class="st5" d="M198.7,11.5c-0.4-0.4-0.7-1-0.7-1.6s0.3-1.2,0.7-1.6c0.4-0.4,1-0.7,1.6-0.7c0.6,0,1.2,0.3,1.6,0.7
			c0.4,0.4,0.7,1,0.7,1.6s-0.2,1.2-0.7,1.6c-0.4,0.4-1,0.7-1.6,0.7C199.7,12.2,199.1,11.9,198.7,11.5z M198,38V19.1
			c0-1.3,0.7-2.3,2-2.3c1.3,0,2,1,2,2.3V38c0,1.3-0.7,2.3-2,2.3C198.7,40.3,198,39.3,198,38z"/>
	</g>
</g>
</svg>
