<?xml version="1.0" encoding="utf-8"?>
<!-- Generator: Adobe Illustrator 19.1.0, SVG Export Plug-In . SVG Version: 6.00 Build 0)  -->
<svg version="1.1" id="katman_1" xmlns="http://www.w3.org/2000/svg" xmlns:xlink="http://www.w3.org/1999/xlink" x="0px" y="0px"
	 viewBox="0 -100 300 300" style="enable-background:new 0 -100 300 300;" xml:space="preserve">
<style type="text/css">
	.st0{fill:url(#SVGID_1_);}
	.st1{fill:url(#SVGID_2_);}
	.st2{fill:url(#SVGID_3_);}
	.st3{fill:url(#SVGID_4_);}
	.st4{fill:url(#SVGID_5_);}
</style>
<g>
	<linearGradient id="SVGID_1_" gradientUnits="userSpaceOnUse" x1="209.148" y1="41.4097" x2="231.6" y2="41.4097">
		<stop  offset="0" style="stop-color:#4D93CF"/>
		<stop  offset="1" style="stop-color:#2DBFD0"/>
	</linearGradient>
	<path class="st0" d="M216,78.2L216,78.2c3.6,2.4,8.5,0.8,10.1-3.2c3.5-9.1,5.5-19.1,5.5-29.4c0-13.9-3.5-27.1-9.7-38.5
		c-1.9-3.5-6.4-4.7-9.7-2.5l0,0c-3,1.9-3.9,5.8-2.2,8.9c5.1,9.6,8,20.5,8,32.1c0,8.6-1.6,16.9-4.6,24.5
		C212.2,73,213.3,76.4,216,78.2z"/>
	<linearGradient id="SVGID_2_" gradientUnits="userSpaceOnUse" x1="41.4" y1="50.1228" x2="258.7" y2="50.1228">
		<stop  offset="0" style="stop-color:#4D93CF"/>
		<stop  offset="1" style="stop-color:#2DBFD0"/>
	</linearGradient>
	<path class="st1" d="M240.7,105.4c11.4-17.2,18-37.8,18-59.9c0-19.5-5.2-37.9-14.2-53.7c-1.9-3.4-6.4-4.4-9.6-2.3l0,0
		c-3,2-3.9,5.9-2.2,9c7.9,13.9,12.4,29.9,12.4,47c0,15.9-3.9,31-10.9,44.2c-2.4,4.6-8.2,6-12.5,3.2l-49-32.4
		c3.1-4.6,4.7-10.2,4.5-16.2c-0.6-14-12.1-25.4-26.1-25.9c-15.5-0.6-28.2,11.8-28.2,27.2c0,5.5,1.7,10.7,4.5,15L78.4,93
		c-4.3,2.8-10.1,1.4-12.5-3.2C59,76.6,55,61.6,55,45.6c0-17.1,4.5-33.1,12.4-47c1.8-3.1,0.8-7-2.2-9l0,0c-3.3-2.2-7.7-1.1-9.6,2.3
		C46.6,7.7,41.4,26,41.4,45.6c0,22.1,6.6,42.9,18,59.8l0,0v0.1c4.4,6.4,13.1,8.1,19.5,3.9l0.3-0.2l59.1-39c3.5,1.7,7.5,2.7,11.7,2.7
		s8.2-0.9,11.7-2.6l59.1,39l0.4,0.2c6.4,4.2,14.9,2.6,19.4-3.6C240.7,105.5,240.7,105.4,240.7,105.4z M136.4,45.5
		c0-7.5,6.1-13.6,13.6-13.6s13.6,6.1,13.6,13.6s-6.1,13.6-13.6,13.6S136.4,53,136.4,45.5z"/>
	<linearGradient id="SVGID_3_" gradientUnits="userSpaceOnUse" x1="186.1931" y1="41.0773" x2="204.3" y2="41.0773">
		<stop  offset="0" style="stop-color:#4D93CF"/>
		<stop  offset="1" style="stop-color:#2DBFD0"/>
	</linearGradient>
	<path class="st2" d="M192.4,62.6L192.4,62.6c3.9,2.6,9.2,0.6,10.3-3.9c1.1-4.2,1.6-8.6,1.6-13.2c0-8.3-1.9-16.2-5.2-23.3
		c-1.7-3.7-6.4-4.9-9.8-2.7l0,0c-2.8,1.9-3.9,5.5-2.5,8.6c2.5,5.3,3.9,11.2,3.9,17.4c0,3.4-0.4,6.6-1.2,9.8
		C188.9,58.1,190,61,192.4,62.6z"/>
	<linearGradient id="SVGID_4_" gradientUnits="userSpaceOnUse" x1="95.6" y1="41.0773" x2="113.7255" y2="41.0773">
		<stop  offset="0" style="stop-color:#4D93CF"/>
		<stop  offset="1" style="stop-color:#2DBFD0"/>
	</linearGradient>
	<path class="st3" d="M107.6,62.6c2.4-1.6,3.5-4.5,2.8-7.3c-0.8-3.1-1.2-6.4-1.2-9.8c0-6.2,1.4-12.1,3.9-17.4
		c1.4-3.1,0.4-6.7-2.5-8.6l0,0c-3.4-2.2-8-1-9.8,2.7c-3.4,7.1-5.2,14.9-5.2,23.3c0,4.6,0.6,9,1.6,13.2
		C98.4,63.2,103.7,65.2,107.6,62.6L107.6,62.6z"/>
	<linearGradient id="SVGID_5_" gradientUnits="userSpaceOnUse" x1="68.4" y1="41.398" x2="90.8297" y2="41.398">
		<stop  offset="0" style="stop-color:#4D93CF"/>
		<stop  offset="1" style="stop-color:#2DBFD0"/>
	</linearGradient>
	<path class="st4" d="M84,78.2c2.7-1.8,3.7-5.2,2.6-8.1C83.7,62.5,82,54.2,82,45.6c0-11.6,2.9-22.5,8-32.1c1.7-3.1,0.7-7-2.2-8.9
		l0,0c-3.3-2.2-7.8-1.1-9.7,2.5c-6.2,11.5-9.7,24.6-9.7,38.5c0,10.4,1.9,20.3,5.5,29.4C75.5,79,80.4,80.6,84,78.2L84,78.2z"/>
</g>
</svg>
